<?xml version="1.0" encoding="utf-8"?>
<!-- Generator: Adobe Illustrator 16.0.3, SVG Export Plug-In . SVG Version: 6.00 Build 0)  -->
<!DOCTYPE svg PUBLIC "-//W3C//DTD SVG 1.1//EN" "http://www.w3.org/Graphics/SVG/1.1/DTD/svg11.dtd">
<svg version="1.1" id="Layer_1" xmlns="http://www.w3.org/2000/svg" xmlns:xlink="http://www.w3.org/1999/xlink" x="0px" y="0px"
	 width="520.385px" height="146px" viewBox="0 0 520.385 146" enable-background="new 0 0 520.385 146" xml:space="preserve">
<g>
	<path fill="#FFFFFF" stroke="#FFFFFF" stroke-width="2" stroke-miterlimit="10" d="M6,27.8v21l48.2,45.401
		C54.731,94.734,55,95.334,55,96v23.4c0,0.669-0.269,1.27-0.8,1.801L29.8,144.4c-0.4,0.4-1,0.6-1.8,0.6c-0.8,0-1.4-0.199-1.8-0.6
		L1.8,121.201C1.266,120.669,1,120.069,1,119.4V96c0-1.73,0.866-2.6,2.6-2.6C5.2,93.4,6,94.269,6,96v22.4L28,139l22-20.6V97
		L1.8,51.8C1.266,51.269,1,50.669,1,50V26.6c0-0.666,0.266-1.266,0.8-1.8l24.4-23C26.731,1.269,27.331,1,28,1
		c0.666,0,1.266,0.269,1.8,0.8l24.4,23c0.531,0.535,0.8,1.135,0.8,1.8V50c0,1.734-0.8,2.6-2.4,2.6c-1.734,0-2.6-0.866-2.6-2.6V27.8
		L28,7L6,27.8z"/>
	<path fill="#FFFFFF" stroke="#FFFFFF" stroke-width="2" stroke-miterlimit="10" d="M79.596,118.4l22,20.6h22V3.6
		c0-1.731,0.866-2.6,2.6-2.6c1.6,0,2.4,0.869,2.4,2.6v138.8c0,1.734-0.8,2.6-2.4,2.6h-24.6c-0.8,0-1.4-0.199-1.8-0.6l-24.4-23.199
		c-0.534-0.531-0.8-1.066-0.8-1.601V3.6c0-1.731,0.866-2.6,2.6-2.6c1.6,0,2.4,0.869,2.4,2.6V118.4z"/>
	<path fill="#FFFFFF" stroke="#FFFFFF" stroke-width="2" stroke-miterlimit="10" d="M173.595,7l-22,20.8v90.6l22,20.6l22.8-21.399
		c1.2-1.2,2.4-1.2,3.6,0c1.2,1.2,1.131,2.399-0.2,3.601l-24.4,23.199c-0.4,0.4-1,0.6-1.8,0.6s-1.4-0.199-1.8-0.6l-24.4-23.199
		c-0.534-0.531-0.8-1.201-0.8-2V26.6c0-0.666,0.266-1.266,0.8-1.8l24.4-23c0.531-0.531,1.131-0.8,1.8-0.8
		c0.666,0,1.266,0.269,1.8,0.8l24.4,23c1.331,1.2,1.4,2.4,0.2,3.6c-1.2,1.2-2.4,1.2-3.6,0L173.595,7z"/>
	<path fill="#FFFFFF" stroke="#FFFFFF" stroke-width="2" stroke-miterlimit="10" d="M241.792,7l-22,20.8v90.6l22,20.6l22.8-21.399
		c1.2-1.2,2.4-1.2,3.6,0c1.201,1.2,1.132,2.399-0.199,3.601l-24.4,23.199c-0.4,0.4-1,0.6-1.8,0.6s-1.4-0.199-1.8-0.6l-24.4-23.199
		c-0.534-0.531-0.8-1.201-0.8-2V26.6c0-0.666,0.266-1.266,0.8-1.8l24.4-23c0.531-0.531,1.131-0.8,1.8-0.8
		c0.666,0,1.266,0.269,1.8,0.8l24.4,23c1.331,1.2,1.4,2.4,0.199,3.6c-1.199,1.2-2.399,1.2-3.6,0L241.792,7z"/>
	<path fill="#FFFFFF" stroke="#FFFFFF" stroke-width="2" stroke-miterlimit="10" d="M309.99,7l-22,20.8v42.6h23.2
		c1.73,0,2.6,0.869,2.6,2.6c0,1.6-0.869,2.4-2.6,2.4h-23.2v43l22,20.6l22.8-21.399c1.2-1.2,2.4-1.2,3.6,0
		c1.201,1.2,1.132,2.399-0.199,3.601l-24.4,23.199c-0.4,0.4-1,0.6-1.8,0.6s-1.399-0.199-1.8-0.6l-24.4-23.199
		c-0.534-0.531-0.8-1.201-0.8-2V26.6c0-0.666,0.266-1.266,0.8-1.8l24.4-23c0.531-0.531,1.131-0.8,1.8-0.8
		c0.665,0,1.266,0.269,1.8,0.8l24.4,23c1.331,1.2,1.4,2.4,0.199,3.6c-1.199,1.2-2.399,1.2-3.6,0L309.99,7z"/>
	<path fill="#FFFFFF" stroke="#FFFFFF" stroke-width="2" stroke-miterlimit="10" d="M354.79,27.8v21l48.199,45.401
		c0.531,0.533,0.801,1.134,0.801,1.799v23.4c0,0.669-0.27,1.27-0.801,1.801L378.59,144.4c-0.4,0.4-1,0.6-1.801,0.6
		s-1.4-0.199-1.801-0.6l-24.399-23.199c-0.534-0.531-0.8-1.132-0.8-1.801V96c0-1.73,0.865-2.6,2.6-2.6c1.6,0,2.4,0.869,2.4,2.6v22.4
		l22,20.6l22-20.6V97l-48.2-45.2c-0.534-0.531-0.8-1.131-0.8-1.8V26.6c0-0.666,0.266-1.266,0.8-1.8l24.399-23
		c0.531-0.531,1.133-0.8,1.801-0.8c0.666,0,1.266,0.269,1.801,0.8l24.398,23c0.531,0.535,0.801,1.135,0.801,1.8V50
		c0,1.734-0.801,2.6-2.4,2.6c-1.734,0-2.6-0.866-2.6-2.6V27.8l-22-20.8L354.79,27.8z"/>
	<path fill="#FFFFFF" stroke="#FFFFFF" stroke-width="2" stroke-miterlimit="10" d="M427.387,27.8v21l48.199,45.401
		c0.531,0.533,0.801,1.134,0.801,1.799v23.4c0,0.669-0.27,1.27-0.801,1.801L451.188,144.4c-0.4,0.4-1,0.6-1.801,0.6
		s-1.4-0.199-1.801-0.6l-24.398-23.199c-0.535-0.531-0.801-1.132-0.801-1.801V96c0-1.73,0.865-2.6,2.6-2.6c1.6,0,2.4,0.869,2.4,2.6
		v22.4l22,20.6l22-20.6V97l-48.199-45.2c-0.535-0.531-0.801-1.131-0.801-1.8V26.6c0-0.666,0.266-1.266,0.801-1.8l24.398-23
		c0.531-0.531,1.133-0.8,1.801-0.8c0.666,0,1.266,0.269,1.801,0.8l24.398,23c0.531,0.535,0.801,1.135,0.801,1.8V50
		c0,1.734-0.801,2.6-2.4,2.6c-1.734,0-2.6-0.866-2.6-2.6V27.8l-22-20.8L427.387,27.8z"/>
	<path fill="#FFFFFF" stroke="#FFFFFF" stroke-width="2" stroke-miterlimit="10" d="M495.385,136.6v-11.2
		c0-1.199,0.4-2.065,1.199-2.6l9.4-5.6c0.801-0.531,1.73-0.531,2.801,0l9.6,5.6c0.531,0.269,0.83,0.6,0.9,1
		c0.064,0.4,0.1,0.934,0.1,1.6v11.2c0,0.534-0.035,1.034-0.1,1.5c-0.07,0.469-0.369,0.835-0.9,1.101l-9.6,5.399
		c-0.936,0.531-1.869,0.531-2.801,0l-9.4-5.399C495.786,138.669,495.385,137.8,495.385,136.6z M499.584,134.6
		c0,0.669,0.266,1.2,0.801,1.601l6.199,3.6c0.531,0.4,1.131,0.4,1.801,0l6-3.6c0.531-0.4,0.799-0.932,0.799-1.601v-7.2
		c0-0.666-0.268-1.199-0.799-1.6l-6-3.6c-0.535-0.4-1.135-0.4-1.801,0l-6.199,3.6c-0.535,0.4-0.801,0.934-0.801,1.6V134.6z
		 M507.286,100c-1.67,0-2.5-0.799-2.5-2.399v-94c0-1.731,0.83-2.6,2.5-2.6c1.664,0,2.5,0.869,2.5,2.6v94
		C509.786,99.201,508.95,100,507.286,100z"/>
</g>
</svg>
