<?xml version="1.0" encoding="utf-8"?>
<!-- Generator: Adobe Illustrator 16.0.3, SVG Export Plug-In . SVG Version: 6.00 Build 0)  -->
<!DOCTYPE svg PUBLIC "-//W3C//DTD SVG 1.1//EN" "http://www.w3.org/Graphics/SVG/1.1/DTD/svg11.dtd">
<svg version="1.1" id="Layer_1" xmlns="http://www.w3.org/2000/svg" xmlns:xlink="http://www.w3.org/1999/xlink" x="0px" y="0px"
	 width="115.054px" height="47.45px" viewBox="0 0 115.054 47.45" enable-background="new 0 0 115.054 47.45" xml:space="preserve">
<g>
	<path fill="#FFFFFF" stroke="#FFFFFF" stroke-width="3" stroke-miterlimit="10" d="M11.007,23.725l6.915,6.544
		c0.164,0.165,0.247,0.351,0.247,0.556v7.162c0,0.246-0.083,0.453-0.247,0.617l-7.532,7.161c-0.124,0.124-0.309,0.185-0.556,0.185
		c-0.207,0-0.392-0.061-0.556-0.185l-7.532-7.161C1.582,38.44,1.5,38.233,1.5,37.987V9.402c0-0.206,0.082-0.391,0.247-0.556
		l7.532-7.1C9.443,1.583,9.628,1.5,9.834,1.5c0.206,0,0.391,0.083,0.556,0.247l7.532,7.1c0.164,0.165,0.247,0.35,0.247,0.556v7.223
		c0,0.207-0.083,0.392-0.247,0.556L11.007,23.725z M9.834,3.352l-6.791,6.42v13.15h6.544l7.038-6.668V9.772L9.834,3.352z
		 M16.625,31.134l-7.038-6.667H3.043v13.273l6.791,6.359l6.791-6.359V31.134z"/>
	<path fill="#FFFFFF" stroke="#FFFFFF" stroke-width="3" stroke-miterlimit="10" d="M28.171,9.402c0-0.206,0.082-0.391,0.247-0.556
		l7.532-7.1C36.114,1.583,36.299,1.5,36.506,1.5c0.206,0,0.391,0.083,0.556,0.247l7.532,7.1c0.164,0.165,0.247,0.35,0.247,0.556
		v28.646c0,0.207-0.083,0.393-0.247,0.557l-7.532,7.161c-0.124,0.124-0.309,0.185-0.556,0.185s-0.432-0.061-0.556-0.185
		l-7.532-7.161c-0.165-0.164-0.247-0.35-0.247-0.557V9.402z M36.506,3.352l-6.791,6.42v27.967l6.791,6.359l6.791-6.359V9.772
		L36.506,3.352z"/>
	<path fill="#FFFFFF" stroke="#FFFFFF" stroke-width="3" stroke-miterlimit="10" d="M54.903,9.402c0-0.206,0.082-0.391,0.247-0.556
		l7.531-7.1c0.164-0.164,0.35-0.247,0.557-0.247c0.205,0,0.391,0.083,0.555,0.247l7.532,7.1c0.164,0.165,0.247,0.35,0.247,0.556
		v28.646c0,0.207-0.083,0.393-0.247,0.557l-7.532,7.161c-0.123,0.124-0.309,0.185-0.555,0.185c-0.248,0-0.433-0.061-0.557-0.185
		l-7.531-7.161c-0.165-0.164-0.247-0.35-0.247-0.557V9.402z M63.238,3.352l-6.792,6.42v27.967l6.792,6.359l6.791-6.359V9.772
		L63.238,3.352z"/>
	<path fill="#FFFFFF" stroke="#FFFFFF" stroke-width="3" stroke-miterlimit="10" d="M90.094,3.352l-6.791,6.42v35.375
		c0,0.536-0.247,0.803-0.74,0.803c-0.536,0-0.803-0.267-0.803-0.803V9.402c0-0.206,0.082-0.391,0.246-0.556l7.532-7.1
		C89.702,1.583,89.887,1.5,90.094,1.5c0.205,0,0.391,0.083,0.556,0.247l7.038,6.606l6.977-6.606
		c0.164-0.164,0.349-0.247,0.555-0.247s0.391,0.083,0.557,0.247l7.531,7.1c0.164,0.165,0.247,0.35,0.247,0.556v35.745
		c0,0.536-0.247,0.803-0.741,0.803c-0.535,0-0.803-0.267-0.803-0.803V9.772l-6.791-6.42l-6.791,6.42v35.375
		c0,0.536-0.246,0.803-0.74,0.803c-0.535,0-0.803-0.267-0.803-0.803V9.772L90.094,3.352z"/>
</g>
</svg>
