<?xml version="1.0" encoding="utf-8"?>
<!-- Generator: Adobe Illustrator 16.0.3, SVG Export Plug-In . SVG Version: 6.00 Build 0)  -->
<!DOCTYPE svg PUBLIC "-//W3C//DTD SVG 1.1//EN" "http://www.w3.org/Graphics/SVG/1.1/DTD/svg11.dtd">
<svg version="1.1" id="Layer_1" xmlns="http://www.w3.org/2000/svg" xmlns:xlink="http://www.w3.org/1999/xlink" x="0px" y="0px"
	 width="157px" height="22.736px" viewBox="0 0 157 22.736" enable-background="new 0 0 157 22.736" xml:space="preserve">
<path fill="#FFFFFF" d="M59.745,22.736l-18.75-14l-18.747,14L1.406,7.172c-1.549-1.156-1.867-3.35-0.71-4.898
	c1.156-1.549,3.349-1.869,4.898-0.71L22.248,14L40.995,0l18.749,14L78.488,0L97.24,14l18.752-14l18.754,14l16.661-12.437
	c1.55-1.156,3.743-0.837,4.898,0.711c1.156,1.549,0.838,3.742-0.711,4.898l-20.849,15.563l-18.754-14l-18.752,14l-18.75-14
	L59.745,22.736z"/>
</svg>
