<?xml version="1.0" encoding="utf-8"?>
<!-- Generator: Adobe Illustrator 16.0.3, SVG Export Plug-In . SVG Version: 6.00 Build 0)  -->
<!DOCTYPE svg PUBLIC "-//W3C//DTD SVG 1.1//EN" "http://www.w3.org/Graphics/SVG/1.1/DTD/svg11.dtd">
<svg version="1.1" id="Layer_1" xmlns="http://www.w3.org/2000/svg" xmlns:xlink="http://www.w3.org/1999/xlink" x="0px" y="0px"
	 width="115.054px" height="47.45px" viewBox="0 0 115.054 47.45" enable-background="new 0 0 115.054 47.45" xml:space="preserve">
<g>
	<path fill="#FFFFFF" stroke="#FFFFFF" stroke-width="3" stroke-miterlimit="10" d="M18.468,2.815l-6.791,6.42v27.967l6.791,6.359
		l7.038-6.605c0.371-0.371,0.741-0.371,1.111,0c0.37,0.37,0.349,0.74-0.062,1.111l-7.532,7.161
		c-0.124,0.124-0.309,0.185-0.556,0.185s-0.432-0.061-0.556-0.185l-7.532-7.161c-0.165-0.164-0.247-0.371-0.247-0.617V8.865
		c0-0.206,0.082-0.391,0.247-0.556l7.532-7.1c0.164-0.164,0.349-0.247,0.556-0.247c0.206,0,0.391,0.083,0.556,0.247l7.532,7.1
		c0.411,0.37,0.432,0.741,0.062,1.111c-0.371,0.37-0.741,0.37-1.111,0L18.468,2.815z"/>
	<path fill="#FFFFFF" stroke="#FFFFFF" stroke-width="3" stroke-miterlimit="10" d="M51.004,36.956c0.371-0.371,0.741-0.371,1.111,0
		c0.37,0.37,0.349,0.74-0.062,1.111l-7.532,7.161c-0.124,0.124-0.309,0.185-0.556,0.185s-0.432-0.061-0.556-0.185l-7.532-7.161
		c-0.165-0.164-0.247-0.35-0.247-0.557V1.765c0-0.534,0.267-0.802,0.803-0.802c0.494,0,0.741,0.268,0.741,0.802v35.437l6.791,6.359
		L51.004,36.956z"/>
	<path fill="#FFFFFF" stroke="#FFFFFF" stroke-width="3" stroke-miterlimit="10" d="M62.856,37.326v7.284
		c0,0.536-0.247,0.803-0.741,0.803c-0.535,0-0.803-0.267-0.803-0.803V8.865c0-0.206,0.082-0.391,0.248-0.556l7.531-7.1
		c0.164-0.164,0.35-0.247,0.556-0.247s0.391,0.083,0.556,0.247l7.531,7.1c0.164,0.165,0.248,0.35,0.248,0.556V44.61
		c0,0.536-0.248,0.803-0.741,0.803c-0.536,0-0.803-0.267-0.803-0.803V24.546L62.856,37.326z M69.647,2.815l-6.791,6.42v25.93
		l13.582-12.779V9.235L69.647,2.815z"/>
	<path fill="#FFFFFF" stroke="#FFFFFF" stroke-width="3" stroke-miterlimit="10" d="M104.838,22.694
		c0,0.247-0.083,0.453-0.247,0.617l-7.532,7.1c-0.164,0.165-0.35,0.247-0.555,0.247c-0.166,0-0.351-0.082-0.557-0.247l-6.234-5.865
		V44.61c0,0.536-0.248,0.803-0.741,0.803c-0.536,0-0.803-0.267-0.803-0.803V8.865c0-0.247,0.082-0.432,0.247-0.556l7.531-7.1
		c0.164-0.164,0.35-0.247,0.557-0.247c0.205,0,0.391,0.083,0.555,0.247l7.532,7.1c0.164,0.165,0.247,0.35,0.247,0.556V22.694z
		 M96.504,2.815l-6.791,6.42v13.15l6.791,6.42l6.791-6.42V9.235L96.504,2.815z"/>
</g>
</svg>
