<?xml version="1.0" encoding="utf-8"?>
<!-- Generator: Adobe Illustrator 16.0.3, SVG Export Plug-In . SVG Version: 6.00 Build 0)  -->
<!DOCTYPE svg PUBLIC "-//W3C//DTD SVG 1.1//EN" "http://www.w3.org/Graphics/SVG/1.1/DTD/svg11.dtd">
<svg version="1.1" id="Layer_1" xmlns="http://www.w3.org/2000/svg" xmlns:xlink="http://www.w3.org/1999/xlink" x="0px" y="0px"
	 width="115.054px" height="47.45px" viewBox="0 0 115.054 47.45" enable-background="new 0 0 115.054 47.45" xml:space="preserve">
<g>
	<path fill="#E2243C" stroke="#FFFFFF" stroke-width="3" stroke-miterlimit="10" d="M29.704,37.376V2
		c0-0.533,0.267-0.802,0.803-0.802C31,1.198,31.248,1.467,31.248,2v35.376l6.791,6.421l6.791-6.421V2
		c0-0.533,0.268-0.802,0.803-0.802c0.494,0,0.741,0.269,0.741,0.802v35.746c0,0.207-0.083,0.393-0.247,0.557l-7.532,7.1
		c-0.165,0.164-0.35,0.246-0.556,0.246c-0.207,0-0.392-0.082-0.556-0.246l-6.976-6.606l-7.038,6.606
		c-0.165,0.164-0.35,0.246-0.556,0.246c-0.207,0-0.392-0.082-0.556-0.246l-7.532-7.1c-0.165-0.164-0.247-0.35-0.247-0.557V2
		c0-0.533,0.267-0.802,0.803-0.802c0.494,0,0.741,0.269,0.741,0.802v35.376l6.791,6.421L29.704,37.376z"/>
	<path fill="#E2243C" stroke="#FFFFFF" stroke-width="3" stroke-miterlimit="10" d="M56.56,9.101c0-0.206,0.082-0.391,0.247-0.556
		l7.531-7.1c0.164-0.164,0.35-0.247,0.557-0.247c0.205,0,0.391,0.083,0.555,0.247l7.532,7.1c0.164,0.165,0.247,0.35,0.247,0.556
		v28.646c0,0.207-0.083,0.393-0.247,0.557l-7.532,7.161c-0.123,0.124-0.309,0.185-0.555,0.185c-0.248,0-0.433-0.061-0.557-0.185
		l-7.531-7.161c-0.165-0.164-0.247-0.35-0.247-0.557V9.101z M64.895,3.051l-6.792,6.42v27.967l6.792,6.359l6.791-6.359V9.471
		L64.895,3.051z"/>
	<path fill="#E2243C" stroke="#FFFFFF" stroke-width="3" stroke-miterlimit="10" d="M83.415,9.101c0-0.206,0.082-0.391,0.247-0.556
		l7.531-7.1c0.164-0.164,0.35-0.247,0.557-0.247c0.205,0,0.391,0.083,0.555,0.247l7.532,7.1c0.164,0.165,0.247,0.35,0.247,0.556
		v28.646c0,0.207-0.083,0.393-0.247,0.557l-7.532,7.161c-0.123,0.124-0.309,0.185-0.555,0.185c-0.248,0-0.433-0.061-0.557-0.185
		l-7.531-7.161c-0.165-0.164-0.247-0.35-0.247-0.557V9.101z M91.75,3.051l-6.791,6.42v27.967l6.791,6.359l6.791-6.359V9.471
		L91.75,3.051z"/>
</g>
</svg>
