<?xml version="1.0" encoding="utf-8"?>
<!-- Generator: Adobe Illustrator 16.0.3, SVG Export Plug-In . SVG Version: 6.00 Build 0)  -->
<!DOCTYPE svg PUBLIC "-//W3C//DTD SVG 1.1//EN" "http://www.w3.org/Graphics/SVG/1.1/DTD/svg11.dtd">
<svg version="1.1" id="Layer_1" xmlns="http://www.w3.org/2000/svg" xmlns:xlink="http://www.w3.org/1999/xlink" x="0px" y="0px"
	 width="306.333px" height="72.817px" viewBox="0 0 306.333 72.817" enable-background="new 0 0 306.333 72.817"
	 xml:space="preserve">
<g>
	<path fill="#FFFFFF" d="M15.575,36.409l11.327,10.72c0.269,0.27,0.405,0.573,0.405,0.91v11.732c0,0.403-0.136,0.742-0.405,1.011
		L14.563,72.514c-0.202,0.202-0.506,0.304-0.91,0.304c-0.338,0-0.642-0.102-0.91-0.304L0.404,60.782C0.134,60.514,0,60.175,0,59.771
		V12.945c0-0.336,0.134-0.64,0.404-0.911l12.339-11.63C13.012,0.136,13.315,0,13.653,0c0.336,0,0.64,0.136,0.91,0.404l12.338,11.63
		c0.269,0.271,0.405,0.574,0.405,0.911v11.833c0,0.338-0.136,0.642-0.405,0.91L15.575,36.409z M13.653,3.034L2.528,13.552v21.542
		h10.721l11.529-10.923V13.552L13.653,3.034z M24.778,48.545L13.249,37.622H2.528v21.744l11.125,10.417l11.125-10.417V48.545z"/>
	<path fill="#FFFFFF" d="M61.086,58.962c0.607-0.607,1.214-0.607,1.82,0c0.607,0.606,0.572,1.213-0.101,1.82L50.467,72.514
		c-0.202,0.202-0.506,0.304-0.91,0.304s-0.708-0.102-0.91-0.304L36.308,60.782c-0.27-0.269-0.404-0.572-0.404-0.91V1.314
		C35.904,0.439,36.341,0,37.219,0c0.809,0,1.213,0.439,1.213,1.314v58.052l11.125,10.417L61.086,58.962z"/>
	<path fill="#FFFFFF" d="M72.918,59.568v11.935c0,0.877-0.404,1.314-1.214,1.314c-0.877,0-1.314-0.438-1.314-1.314V12.945
		c0-0.336,0.134-0.64,0.404-0.911l12.339-11.63C83.401,0.136,83.705,0,84.043,0c0.336,0,0.64,0.136,0.91,0.404l12.338,11.63
		c0.269,0.271,0.404,0.574,0.404,0.911v58.558c0,0.877-0.404,1.314-1.213,1.314c-0.877,0-1.315-0.438-1.315-1.314V38.634
		L72.918,59.568z M84.043,3.034L72.918,13.552v42.478l22.25-20.936V13.552L84.043,3.034z"/>
	<path fill="#FFFFFF" d="M109.124,13.552v10.619l24.374,22.958c0.269,0.27,0.405,0.573,0.405,0.91v11.833
		c0,0.338-0.136,0.642-0.405,0.91l-12.338,11.731c-0.202,0.202-0.506,0.304-0.91,0.304c-0.405,0-0.708-0.102-0.91-0.304L107,60.782
		c-0.27-0.269-0.404-0.572-0.404-0.91V48.039c0-0.875,0.438-1.314,1.315-1.314c0.809,0,1.213,0.439,1.213,1.314v11.327
		l11.125,10.417l11.125-10.417V48.545L107,25.688c-0.27-0.269-0.404-0.572-0.404-0.91V12.945c0-0.336,0.134-0.64,0.404-0.911
		l12.339-11.63C119.607,0.136,119.911,0,120.249,0c0.336,0,0.64,0.136,0.91,0.404l12.338,11.63c0.269,0.271,0.405,0.574,0.405,0.911
		v11.833c0,0.877-0.405,1.315-1.213,1.315c-0.877,0-1.315-0.438-1.315-1.315V13.552L120.249,3.034L109.124,13.552z"/>
	<path fill="#FFFFFF" d="M151.5,4.248l-10.214,9.608c-0.607,0.607-1.214,0.607-1.821,0c-0.541-0.607-0.505-1.214,0.101-1.821
		l12.323-11.63C152.147,0.136,152.438,0,152.764,0c0.324,0,0.616,0.136,0.875,0.404l12.322,11.63
		c0.674,0.607,0.709,1.214,0.102,1.821c-0.606,0.607-1.214,0.607-1.82,0l-10.214-9.608v67.255c0,0.877-0.422,1.314-1.265,1.314
		c-0.844,0-1.264-0.438-1.264-1.314V4.248z"/>
	<path fill="#FFFFFF" d="M192.86,12.945c0-0.336,0.134-0.64,0.404-0.911l12.339-11.63C205.872,0.136,206.175,0,206.513,0
		c0.336,0,0.64,0.136,0.91,0.404l12.339,11.63c0.269,0.271,0.404,0.574,0.404,0.911v46.927c0,0.338-0.136,0.642-0.404,0.91
		l-12.339,11.731c-0.202,0.202-0.506,0.304-0.91,0.304s-0.709-0.102-0.91-0.304l-12.339-11.731c-0.271-0.269-0.404-0.572-0.404-0.91
		V12.945z M206.513,3.034l-11.125,10.518v45.814l11.125,10.417l11.124-10.417V13.552L206.513,3.034z"/>
	<path fill="#FFFFFF" d="M231.796,35.094h11.732c0.875,0,1.314,0.439,1.314,1.315c0,0.809-0.439,1.213-1.314,1.213h-11.732v33.881
		c0,0.877-0.403,1.314-1.214,1.314c-0.877,0-1.314-0.438-1.314-1.314V12.945c0-0.336,0.135-0.64,0.405-0.911l12.339-11.63
		C242.281,0.136,242.583,0,242.921,0c0.337,0,0.64,0.136,0.911,0.404l12.338,11.63c0.673,0.607,0.708,1.214,0.102,1.821
		s-1.214,0.607-1.82,0l-11.53-10.822l-11.125,10.518V35.094z"/>
	<path fill="#FFFFFF" d="M264.26,35.094h11.732c0.875,0,1.314,0.439,1.314,1.315c0,0.809-0.439,1.213-1.314,1.213H264.26v33.881
		c0,0.877-0.403,1.314-1.214,1.314c-0.877,0-1.314-0.438-1.314-1.314V12.945c0-0.336,0.135-0.64,0.405-0.911l12.339-11.63
		C274.745,0.136,275.047,0,275.385,0c0.337,0,0.641,0.136,0.911,0.404l12.339,11.63c0.672,0.607,0.707,1.214,0.101,1.821
		s-1.214,0.607-1.82,0l-11.53-10.822L264.26,13.552V35.094z"/>
	<path fill="#FFFFFF" d="M294.197,68.569v-5.663c0-0.606,0.202-1.045,0.607-1.314l4.752-2.832c0.405-0.269,0.876-0.269,1.416,0
		l4.854,2.832c0.269,0.136,0.421,0.303,0.455,0.505c0.034,0.203,0.051,0.473,0.051,0.81v5.663c0,0.271-0.017,0.523-0.051,0.759
		c-0.034,0.237-0.187,0.422-0.455,0.557l-4.854,2.73c-0.472,0.269-0.944,0.269-1.416,0l-4.752-2.73
		C294.399,69.616,294.197,69.177,294.197,68.569z M296.321,67.559c0,0.338,0.134,0.606,0.404,0.809l3.136,1.82
		c0.269,0.203,0.571,0.203,0.909,0l3.034-1.82c0.269-0.202,0.405-0.471,0.405-0.809v-3.642c0-0.337-0.137-0.606-0.405-0.809
		l-3.034-1.82c-0.27-0.202-0.574-0.202-0.909,0l-3.136,1.82c-0.271,0.202-0.404,0.472-0.404,0.809V67.559z M300.214,50.062
		c-0.844,0-1.265-0.404-1.265-1.213V1.314c0-0.875,0.421-1.314,1.265-1.314c0.842,0,1.264,0.439,1.264,1.314v47.534
		C301.478,49.657,301.056,50.062,300.214,50.062z"/>
</g>
</svg>
